<mxfile host="app.diagrams.net" modified="2024-02-18T06:34:18.166Z" agent="Mozilla/5.0 (Macintosh; Intel Mac OS X 10_15_7) AppleWebKit/537.36 (KHTML, like Gecko) Chrome/121.0.0.0 Safari/537.36" etag="BhrE_pkl5kZkAVRRHT0f" version="23.1.1" type="github">
  <diagram id="prtHgNgQTEPvFCAcTncT" name="Page-1">
    <mxGraphModel dx="988" dy="503" grid="1" gridSize="10" guides="1" tooltips="1" connect="1" arrows="1" fold="1" page="1" pageScale="1" pageWidth="827" pageHeight="1169" math="0" shadow="0">
      <root>
        <mxCell id="0" />
        <mxCell id="1" parent="0" />
        <mxCell id="tfG6uYgDS5PX6Q32uRyv-5" value="风控回调-获取face决策结果" style="swimlane;childLayout=stackLayout;resizeParent=1;resizeParentMax=0;startSize=20;html=1;labelBackgroundColor=none;fillColor=#B2C9AB;strokeColor=#788AA3;fontColor=#46495D;" vertex="1" parent="1">
          <mxGeometry x="230.00000000000045" y="300" width="720" height="500" as="geometry" />
        </mxCell>
        <mxCell id="tfG6uYgDS5PX6Q32uRyv-6" value="风控系统" style="swimlane;startSize=20;html=1;labelBackgroundColor=none;fillColor=#B2C9AB;strokeColor=#788AA3;fontColor=#46495D;" vertex="1" parent="tfG6uYgDS5PX6Q32uRyv-5">
          <mxGeometry y="20" width="180" height="480" as="geometry" />
        </mxCell>
        <mxCell id="tfG6uYgDS5PX6Q32uRyv-9" value="请求回调，获取face决策结果" style="rounded=0;whiteSpace=wrap;html=1;strokeColor=#788AA3;fontColor=#46495D;fillColor=#B2C9AB;" vertex="1" parent="tfG6uYgDS5PX6Q32uRyv-6">
          <mxGeometry x="29.999999999999545" y="40" width="120" height="60" as="geometry" />
        </mxCell>
        <mxCell id="tfG6uYgDS5PX6Q32uRyv-21" value="返回face决策结果" style="rounded=0;whiteSpace=wrap;html=1;strokeColor=#788AA3;fontColor=#46495D;fillColor=#B2C9AB;" vertex="1" parent="tfG6uYgDS5PX6Q32uRyv-6">
          <mxGeometry x="29.999999999999545" y="380" width="120" height="60" as="geometry" />
        </mxCell>
        <mxCell id="tfG6uYgDS5PX6Q32uRyv-7" value="xyf-credit-system" style="swimlane;startSize=20;html=1;labelBackgroundColor=none;fillColor=#B2C9AB;strokeColor=#788AA3;fontColor=#46495D;" vertex="1" parent="tfG6uYgDS5PX6Q32uRyv-5">
          <mxGeometry x="180" y="20" width="390" height="480" as="geometry" />
        </mxCell>
        <mxCell id="tfG6uYgDS5PX6Q32uRyv-14" value="" style="edgeStyle=orthogonalEdgeStyle;rounded=1;orthogonalLoop=1;jettySize=auto;html=1;strokeColor=#788AA3;fontColor=#46495D;fillColor=#B2C9AB;curved=0;" edge="1" parent="tfG6uYgDS5PX6Q32uRyv-7" source="tfG6uYgDS5PX6Q32uRyv-10" target="tfG6uYgDS5PX6Q32uRyv-13">
          <mxGeometry relative="1" as="geometry" />
        </mxCell>
        <mxCell id="tfG6uYgDS5PX6Q32uRyv-10" value="获取face决策结果接口" style="rounded=0;whiteSpace=wrap;html=1;strokeColor=#788AA3;fontColor=#46495D;fillColor=#B2C9AB;" vertex="1" parent="tfG6uYgDS5PX6Q32uRyv-7">
          <mxGeometry x="169.99999999999955" y="40" width="120" height="60" as="geometry" />
        </mxCell>
        <mxCell id="tfG6uYgDS5PX6Q32uRyv-16" value="" style="edgeStyle=orthogonalEdgeStyle;shape=connector;curved=0;rounded=1;orthogonalLoop=1;jettySize=auto;html=1;labelBackgroundColor=default;strokeColor=#788AA3;align=center;verticalAlign=middle;fontFamily=Helvetica;fontSize=11;fontColor=#46495D;endArrow=classic;fillColor=#B2C9AB;" edge="1" parent="tfG6uYgDS5PX6Q32uRyv-7" source="tfG6uYgDS5PX6Q32uRyv-13" target="tfG6uYgDS5PX6Q32uRyv-15">
          <mxGeometry relative="1" as="geometry" />
        </mxCell>
        <mxCell id="tfG6uYgDS5PX6Q32uRyv-13" value="查询FaceVerify表数据" style="rounded=0;whiteSpace=wrap;html=1;strokeColor=#788AA3;fontColor=#46495D;fillColor=#B2C9AB;" vertex="1" parent="tfG6uYgDS5PX6Q32uRyv-7">
          <mxGeometry x="79.99999999999955" y="160" width="120" height="60" as="geometry" />
        </mxCell>
        <mxCell id="tfG6uYgDS5PX6Q32uRyv-20" value="" style="edgeStyle=orthogonalEdgeStyle;shape=connector;curved=0;rounded=1;orthogonalLoop=1;jettySize=auto;html=1;labelBackgroundColor=default;strokeColor=#788AA3;align=center;verticalAlign=middle;fontFamily=Helvetica;fontSize=11;fontColor=#46495D;endArrow=classic;fillColor=#B2C9AB;" edge="1" parent="tfG6uYgDS5PX6Q32uRyv-7" source="tfG6uYgDS5PX6Q32uRyv-15" target="tfG6uYgDS5PX6Q32uRyv-19">
          <mxGeometry relative="1" as="geometry" />
        </mxCell>
        <mxCell id="tfG6uYgDS5PX6Q32uRyv-15" value="根据灰度配置选择旷世/腾讯/财焱的face决策接口" style="rounded=0;whiteSpace=wrap;html=1;strokeColor=#788AA3;fontColor=#46495D;fillColor=#B2C9AB;" vertex="1" parent="tfG6uYgDS5PX6Q32uRyv-7">
          <mxGeometry x="79.99999999999955" y="280" width="120" height="60" as="geometry" />
        </mxCell>
        <mxCell id="tfG6uYgDS5PX6Q32uRyv-19" value="整合face决策结果" style="rounded=0;whiteSpace=wrap;html=1;strokeColor=#788AA3;fontColor=#46495D;fillColor=#B2C9AB;" vertex="1" parent="tfG6uYgDS5PX6Q32uRyv-7">
          <mxGeometry x="79.99999999999955" y="380" width="120" height="60" as="geometry" />
        </mxCell>
        <mxCell id="tfG6uYgDS5PX6Q32uRyv-8" value="KYC/旷世" style="swimlane;startSize=20;html=1;labelBackgroundColor=none;fillColor=#B2C9AB;strokeColor=#788AA3;fontColor=#46495D;" vertex="1" parent="tfG6uYgDS5PX6Q32uRyv-5">
          <mxGeometry x="570" y="20" width="150" height="480" as="geometry" />
        </mxCell>
        <mxCell id="tfG6uYgDS5PX6Q32uRyv-17" value="face决策接口" style="rounded=0;whiteSpace=wrap;html=1;strokeColor=#788AA3;fontColor=#46495D;fillColor=#B2C9AB;" vertex="1" parent="tfG6uYgDS5PX6Q32uRyv-8">
          <mxGeometry x="15" y="280" width="120" height="60" as="geometry" />
        </mxCell>
        <mxCell id="tfG6uYgDS5PX6Q32uRyv-11" style="edgeStyle=orthogonalEdgeStyle;rounded=0;orthogonalLoop=1;jettySize=auto;html=1;entryX=0;entryY=0.5;entryDx=0;entryDy=0;strokeColor=#788AA3;fontColor=#46495D;fillColor=#B2C9AB;" edge="1" parent="tfG6uYgDS5PX6Q32uRyv-5" source="tfG6uYgDS5PX6Q32uRyv-9" target="tfG6uYgDS5PX6Q32uRyv-10">
          <mxGeometry relative="1" as="geometry" />
        </mxCell>
        <mxCell id="tfG6uYgDS5PX6Q32uRyv-12" value="v2/credit/get-face-verfy-decision" style="edgeLabel;html=1;align=center;verticalAlign=middle;resizable=0;points=[];fontColor=#46495D;" vertex="1" connectable="0" parent="tfG6uYgDS5PX6Q32uRyv-11">
          <mxGeometry x="-0.2879" y="2" relative="1" as="geometry">
            <mxPoint x="29" y="2" as="offset" />
          </mxGeometry>
        </mxCell>
        <mxCell id="tfG6uYgDS5PX6Q32uRyv-18" style="edgeStyle=orthogonalEdgeStyle;shape=connector;curved=0;rounded=1;orthogonalLoop=1;jettySize=auto;html=1;labelBackgroundColor=default;strokeColor=#788AA3;align=center;verticalAlign=middle;fontFamily=Helvetica;fontSize=11;fontColor=#46495D;endArrow=classic;fillColor=#B2C9AB;" edge="1" parent="tfG6uYgDS5PX6Q32uRyv-5" source="tfG6uYgDS5PX6Q32uRyv-15" target="tfG6uYgDS5PX6Q32uRyv-17">
          <mxGeometry relative="1" as="geometry" />
        </mxCell>
        <mxCell id="tfG6uYgDS5PX6Q32uRyv-22" value="" style="edgeStyle=orthogonalEdgeStyle;shape=connector;curved=0;rounded=1;orthogonalLoop=1;jettySize=auto;html=1;labelBackgroundColor=default;strokeColor=#788AA3;align=center;verticalAlign=middle;fontFamily=Helvetica;fontSize=11;fontColor=#46495D;endArrow=classic;fillColor=#B2C9AB;" edge="1" parent="tfG6uYgDS5PX6Q32uRyv-5" source="tfG6uYgDS5PX6Q32uRyv-19" target="tfG6uYgDS5PX6Q32uRyv-21">
          <mxGeometry relative="1" as="geometry" />
        </mxCell>
        <mxCell id="tfG6uYgDS5PX6Q32uRyv-23" value="return" style="edgeLabel;html=1;align=center;verticalAlign=middle;resizable=0;points=[];fontSize=11;fontFamily=Helvetica;fontColor=#46495D;" vertex="1" connectable="0" parent="tfG6uYgDS5PX6Q32uRyv-22">
          <mxGeometry x="0.0892" y="-1" relative="1" as="geometry">
            <mxPoint as="offset" />
          </mxGeometry>
        </mxCell>
      </root>
    </mxGraphModel>
  </diagram>
</mxfile>
